<svg xmlns="http://www.w3.org/2000/svg" viewBox="0 0 512 512">
  <defs>
    <radialGradient id="bg" cx="50%" cy="40%" r="65%">
      <stop offset="0%" stop-color="#F5E6D3"/>
      <stop offset="60%" stop-color="#E89B5C"/>
      <stop offset="100%" stop-color="#B87340"/>
    </radialGradient>
    <linearGradient id="bread" x1="0%" y1="0%" x2="0%" y2="100%">
      <stop offset="0%" stop-color="#F5C77B"/>
      <stop offset="100%" stop-color="#9B5527"/>
    </linearGradient>
  </defs>
  <rect width="512" height="512" rx="96" fill="url(#bg)"/>
  <!-- bread loaf (croissant-like) -->
  <ellipse cx="256" cy="296" rx="170" ry="120" fill="url(#bread)" stroke="#5C3A1E" stroke-width="10"/>
  <path d="M 96 286 Q 256 220 416 286" fill="none" stroke="#5C3A1E" stroke-width="6" stroke-linecap="round" opacity="0.6"/>
  <path d="M 116 320 Q 256 260 396 320" fill="none" stroke="#5C3A1E" stroke-width="5" stroke-linecap="round" opacity="0.4"/>
  <ellipse cx="200" cy="260" rx="36" ry="18" fill="#FFE9C4" opacity="0.6"/>
  <!-- magic star -->
  <path d="M 256 90 L 270 138 L 320 144 L 282 178 L 296 226 L 256 198 L 216 226 L 230 178 L 192 144 L 242 138 Z"
        fill="#E5B547" stroke="#5C3A1E" stroke-width="6" stroke-linejoin="round"/>
  <!-- sparkles -->
  <circle cx="120" cy="160" r="6" fill="#FFF" opacity="0.8"/>
  <circle cx="400" cy="170" r="8" fill="#FFF" opacity="0.7"/>
  <circle cx="100" cy="220" r="4" fill="#FFF" opacity="0.6"/>
  <circle cx="420" cy="240" r="5" fill="#FFF" opacity="0.7"/>
</svg>
